<svg xmlns="http://www.w3.org/2000/svg" xmlns:xlink="http://www.w3.org/1999/xlink" width="192" zoomAndPan="magnify" viewBox="0 0 144 143.999998" height="192" preserveAspectRatio="xMidYMid meet" version="1.0"><defs><clipPath id="a64b9ef8ab"><path d="M 84.058594 71 L 130.996094 71 L 130.996094 120 L 84.058594 120 Z M 84.058594 71 " clip-rule="nonzero"/></clipPath><clipPath id="a8e29ced74"><path d="M 127 31.015625 L 127.582031 31.015625 L 127.582031 97.015625 L 127 97.015625 Z M 127 31.015625 " clip-rule="nonzero"/></clipPath><clipPath id="f65a36fe70"><path d="M 80.691406 47 L 127.582031 47 L 127.582031 96 L 80.691406 96 Z M 80.691406 47 " clip-rule="nonzero"/></clipPath><clipPath id="a1146246af"><path d="M 10.382812 2.957031 L 80.132812 2.957031 L 80.132812 140.957031 L 10.382812 140.957031 Z M 10.382812 2.957031 " clip-rule="nonzero"/></clipPath><clipPath id="2ea8898b86"><path d="M 80 59 L 80.132812 59 L 80.132812 121 L 80 121 Z M 80 59 " clip-rule="nonzero"/></clipPath></defs><g clip-path="url(#a64b9ef8ab)"><path fill="#f6a25d" d="M 109.253906 119.644531 C 109.253906 111.023438 109.253906 102.566406 109.253906 93.875 C 100.644531 93.875 92.152344 93.875 83.539062 93.875 C 83.453125 93.160156 83.347656 92.667969 83.347656 92.171875 C 83.335938 85.902344 83.363281 79.632812 83.324219 73.363281 C 83.320312 72.136719 83.507812 71.480469 84.988281 71.484375 C 100.046875 71.53125 115.109375 71.515625 130.171875 71.519531 C 130.484375 71.519531 130.800781 71.574219 131.246094 71.617188 C 131.246094 87.613281 131.246094 103.546875 131.246094 119.640625 C 124.019531 119.644531 116.765625 119.644531 109.253906 119.644531 Z M 109.253906 119.644531 " fill-opacity="1" fill-rule="nonzero"/></g><g clip-path="url(#a8e29ced74)"><path fill="#23284e" d="M 127.914062 55.367188 L 127.914062 31.019531 L 128.976562 31.070312 C 150.078125 32.070312 165.847656 41.109375 175.84375 57.945312 C 181.394531 67.300781 184.175781 76.90625 184.105469 86.488281 C 184.035156 96.070312 181.113281 105.636719 175.425781 114.921875 C 165.332031 131.394531 149.71875 140.191406 129.011719 141.074219 L 127.949219 141.117188 L 127.949219 116.832031 L 128.929688 116.796875 C 148.394531 116.050781 159.085938 100.617188 159.261719 86.464844 C 159.445312 71.785156 147.894531 55.726562 128.910156 55.382812 Z M 127.914062 55.367188 " fill-opacity="1" fill-rule="nonzero"/></g><g clip-path="url(#f65a36fe70)"><path fill="#f6a25d" d="M 102.4375 47.597656 C 102.4375 56.21875 102.4375 64.675781 102.4375 73.367188 C 111.046875 73.367188 119.539062 73.367188 128.148438 73.367188 C 128.234375 74.082031 128.34375 74.574219 128.34375 75.070312 C 128.351562 81.339844 128.328125 87.609375 128.363281 93.878906 C 128.371094 95.105469 128.179688 95.761719 126.703125 95.757812 C 111.640625 95.710938 96.582031 95.726562 81.519531 95.722656 C 81.203125 95.722656 80.890625 95.667969 80.441406 95.625 C 80.441406 79.628906 80.441406 63.695312 80.441406 47.601562 C 87.667969 47.597656 94.921875 47.597656 102.4375 47.597656 Z M 102.4375 47.597656 " fill-opacity="1" fill-rule="nonzero"/></g><g clip-path="url(#a1146246af)"><path fill="#004aad" d="M 80.964844 110.503906 L 80.964844 141.039062 L 79.628906 140.972656 C 53.164062 139.722656 33.386719 128.386719 20.851562 107.269531 C 13.886719 95.535156 10.398438 83.488281 10.488281 71.46875 C 10.578125 59.453125 14.238281 47.457031 21.375 35.8125 C 34.03125 15.152344 53.617188 4.117188 79.585938 3.011719 L 80.917969 2.957031 L 80.917969 33.414062 L 79.6875 33.460938 C 55.273438 34.394531 41.863281 53.753906 41.644531 71.5 C 41.414062 89.910156 55.902344 110.054688 79.710938 110.480469 Z M 80.964844 110.503906 " fill-opacity="1" fill-rule="nonzero"/></g><g clip-path="url(#2ea8898b86)"><path fill="#f6a25d" d="M 112.914062 120.246094 C 112.914062 109.433594 112.914062 98.828125 112.914062 87.925781 C 102.117188 87.925781 91.464844 87.925781 80.664062 87.925781 C 80.558594 87.03125 80.421875 86.414062 80.421875 85.792969 C 80.410156 77.925781 80.445312 70.066406 80.398438 62.199219 C 80.390625 60.664062 80.625 59.839844 82.480469 59.847656 C 101.371094 59.90625 120.257812 59.886719 139.148438 59.890625 C 139.542969 59.890625 139.9375 59.960938 140.5 60.011719 C 140.5 80.074219 140.5 100.054688 140.5 120.242188 C 131.4375 120.246094 122.339844 120.246094 112.914062 120.246094 Z M 112.914062 120.246094 " fill-opacity="1" fill-rule="nonzero"/></g></svg>